<?xml version="1.0" encoding="UTF-8" standalone="no"?>
<!DOCTYPE svg PUBLIC "-//W3C//DTD SVG 1.1//EN"
 "http://www.w3.org/Graphics/SVG/1.1/DTD/svg11.dtd">
<!-- Generated by graphviz version 2.47.1 (0)
 -->
<!-- Title: snakemake_dag Pages: 1 -->
<svg width="292pt" height="332pt"
 viewBox="0.00 0.00 291.50 332.00" xmlns="http://www.w3.org/2000/svg" xmlns:xlink="http://www.w3.org/1999/xlink">
<g id="graph0" class="graph" transform="scale(1 1) rotate(0) translate(4 328)">
<title>snakemake_dag</title>
<polygon fill="white" stroke="transparent" points="-4,4 -4,-328 287.5,-328 287.5,4 -4,4"/>
<!-- 0 -->
<g id="node1" class="node">
<title>0</title>
<path fill="none" stroke="#c6d856" stroke-width="2" d="M268.5,-36C268.5,-36 193.5,-36 193.5,-36 187.5,-36 181.5,-30 181.5,-24 181.5,-24 181.5,-12 181.5,-12 181.5,-6 187.5,0 193.5,0 193.5,0 268.5,0 268.5,0 274.5,0 280.5,-6 280.5,-12 280.5,-12 280.5,-24 280.5,-24 280.5,-30 274.5,-36 268.5,-36"/>
<text text-anchor="middle" x="231" y="-15.5" font-family="sans" font-size="10.00">BCrankProcessing</text>
</g>
<!-- 1 -->
<g id="node2" class="node">
<title>1</title>
<path fill="none" stroke="#56a2d8" stroke-width="2" d="M246,-108C246,-108 216,-108 216,-108 210,-108 204,-102 204,-96 204,-96 204,-84 204,-84 204,-78 210,-72 216,-72 216,-72 246,-72 246,-72 252,-72 258,-78 258,-84 258,-84 258,-96 258,-96 258,-102 252,-108 246,-108"/>
<text text-anchor="middle" x="231" y="-87.5" font-family="sans" font-size="10.00">BCrank</text>
</g>
<!-- 1&#45;&gt;0 -->
<g id="edge1" class="edge">
<title>1&#45;&gt;0</title>
<path fill="none" stroke="grey" stroke-width="2" d="M231,-71.7C231,-63.98 231,-54.71 231,-46.11"/>
<polygon fill="grey" stroke="grey" stroke-width="2" points="234.5,-46.1 231,-36.1 227.5,-46.1 234.5,-46.1"/>
</g>
<!-- 2 -->
<g id="node3" class="node">
<title>2</title>
<path fill="none" stroke="#d8a456" stroke-width="2" d="M211.5,-180C211.5,-180 152.5,-180 152.5,-180 146.5,-180 140.5,-174 140.5,-168 140.5,-168 140.5,-156 140.5,-156 140.5,-150 146.5,-144 152.5,-144 152.5,-144 211.5,-144 211.5,-144 217.5,-144 223.5,-150 223.5,-156 223.5,-156 223.5,-168 223.5,-168 223.5,-174 217.5,-180 211.5,-180"/>
<text text-anchor="middle" x="182" y="-159.5" font-family="sans" font-size="10.00">SummitFASTA</text>
</g>
<!-- 2&#45;&gt;0 -->
<g id="edge2" class="edge">
<title>2&#45;&gt;0</title>
<path fill="none" stroke="grey" stroke-width="2" d="M182.25,-143.69C183.03,-125.32 185.78,-95.72 195,-72 198.77,-62.31 204.59,-52.62 210.46,-44.23"/>
<polygon fill="grey" stroke="grey" stroke-width="2" points="213.4,-46.14 216.51,-36.02 207.76,-41.99 213.4,-46.14"/>
</g>
<!-- 2&#45;&gt;1 -->
<g id="edge4" class="edge">
<title>2&#45;&gt;1</title>
<path fill="none" stroke="grey" stroke-width="2" d="M194.11,-143.7C199.87,-135.47 206.86,-125.48 213.21,-116.42"/>
<polygon fill="grey" stroke="grey" stroke-width="2" points="216.16,-118.3 219.03,-108.1 210.42,-114.29 216.16,-118.3"/>
</g>
<!-- 3 -->
<g id="node4" class="node">
<title>3</title>
<path fill="none" stroke="#56d8c9" stroke-width="2" stroke-dasharray="5,2" d="M88,-252C88,-252 12,-252 12,-252 6,-252 0,-246 0,-240 0,-240 0,-228 0,-228 0,-222 6,-216 12,-216 12,-216 88,-216 88,-216 94,-216 100,-222 100,-228 100,-228 100,-240 100,-240 100,-246 94,-252 88,-252"/>
<text text-anchor="middle" x="50" y="-231.5" font-family="sans" font-size="10.00">CreateRefGenome</text>
</g>
<!-- 3&#45;&gt;2 -->
<g id="edge5" class="edge">
<title>3&#45;&gt;2</title>
<path fill="none" stroke="grey" stroke-width="2" d="M82.29,-215.88C99.87,-206.55 121.81,-194.92 140.63,-184.94"/>
<polygon fill="grey" stroke="grey" stroke-width="2" points="142.39,-187.97 149.59,-180.19 139.11,-181.78 142.39,-187.97"/>
</g>
<!-- 4 -->
<g id="node5" class="node">
<title>4</title>
<path fill="none" stroke="#78d856" stroke-width="2" d="M245.5,-252C245.5,-252 130.5,-252 130.5,-252 124.5,-252 118.5,-246 118.5,-240 118.5,-240 118.5,-228 118.5,-228 118.5,-222 124.5,-216 130.5,-216 130.5,-216 245.5,-216 245.5,-216 251.5,-216 257.5,-222 257.5,-228 257.5,-228 257.5,-240 257.5,-240 257.5,-246 251.5,-252 245.5,-252"/>
<text text-anchor="middle" x="188" y="-231.5" font-family="sans" font-size="10.00">NarrowPeakSummitTracker</text>
</g>
<!-- 4&#45;&gt;2 -->
<g id="edge6" class="edge">
<title>4&#45;&gt;2</title>
<path fill="none" stroke="grey" stroke-width="2" d="M186.52,-215.7C185.86,-207.98 185.06,-198.71 184.32,-190.11"/>
<polygon fill="grey" stroke="grey" stroke-width="2" points="187.81,-189.77 183.47,-180.1 180.83,-190.37 187.81,-189.77"/>
</g>
<!-- 5 -->
<g id="node6" class="node">
<title>5</title>
<path fill="none" stroke="#d85656" stroke-width="2" d="M271.5,-324C271.5,-324 202.5,-324 202.5,-324 196.5,-324 190.5,-318 190.5,-312 190.5,-312 190.5,-300 190.5,-300 190.5,-294 196.5,-288 202.5,-288 202.5,-288 271.5,-288 271.5,-288 277.5,-288 283.5,-294 283.5,-300 283.5,-300 283.5,-312 283.5,-312 283.5,-318 277.5,-324 271.5,-324"/>
<text text-anchor="middle" x="237" y="-309" font-family="sans" font-size="10.00">MACS2</text>
<text text-anchor="middle" x="237" y="-298" font-family="sans" font-size="10.00">sample: {sample}</text>
</g>
<!-- 5&#45;&gt;0 -->
<g id="edge3" class="edge">
<title>5&#45;&gt;0</title>
<path fill="none" stroke="grey" stroke-width="2" d="M249.27,-287.78C255.6,-277.83 262.68,-264.79 266,-252 286.09,-174.56 290.51,-148.47 267,-72 263.99,-62.22 258.49,-52.62 252.68,-44.33"/>
<polygon fill="grey" stroke="grey" stroke-width="2" points="255.41,-42.13 246.61,-36.23 249.81,-46.33 255.41,-42.13"/>
</g>
<!-- 5&#45;&gt;4 -->
<g id="edge7" class="edge">
<title>5&#45;&gt;4</title>
<path fill="none" stroke="grey" stroke-width="2" d="M224.89,-287.7C219.13,-279.47 212.14,-269.48 205.79,-260.42"/>
<polygon fill="grey" stroke="grey" stroke-width="2" points="208.58,-258.29 199.97,-252.1 202.84,-262.3 208.58,-258.29"/>
</g>
</g>
</svg>
